<svg width="121" height="33" viewBox="0 0 121 33" fill="none" xmlns="http://www.w3.org/2000/svg">
<path d="M22.4785 27.767L31.5621 32.2056V12.2836L22.4785 7.94824V27.767Z" fill="white"/>
<path d="M0.285156 0V27.7669H9.36875V7.94815H22.478V0H0.285156Z" fill="white"/>
<path d="M54.7851 8.36201C54.7851 11.5619 52.6174 13.5231 49.211 13.5231H45.8047V3.09766H49.211C52.6174 3.09766 54.7851 5.16211 54.7851 8.36201ZM49.211 12.1813C51.6884 12.1813 53.0303 10.7361 53.0303 8.36201C53.0303 5.98789 51.6884 4.54277 49.211 4.54277H47.5595V12.1813H49.211Z" fill="white"/>
<path d="M60.0488 13.7299C57.6747 13.7299 55.9199 12.0783 55.9199 9.49776C55.9199 6.91719 57.5715 5.26562 60.0488 5.26562C62.423 5.26562 64.0745 6.91719 64.0745 9.29131C64.0745 9.60098 64.0745 9.80742 63.9713 10.1171H57.6747C57.7779 11.459 58.8102 12.2848 60.0488 12.2848C61.0811 12.2848 61.7004 11.7687 62.0101 11.1493H63.8681C63.352 12.5944 62.0101 13.7299 60.0488 13.7299ZM57.6747 8.67197H62.2165C62.2165 7.4333 61.1843 6.60752 59.9456 6.60752C58.8102 6.60752 57.8812 7.4333 57.6747 8.67197Z" fill="white"/>
<path d="M71.6103 8.98164C71.6103 7.4333 70.7845 6.71074 69.5458 6.71074C68.3071 6.71074 67.4814 7.53652 67.4814 8.98164V13.6267H65.7266V5.36885H67.4814V6.29785C67.9975 5.57529 68.9265 5.26562 69.9587 5.26562C71.9199 5.26562 73.365 6.5043 73.365 8.7752V13.6267H71.7135V8.98164H71.6103Z" fill="white"/>
<path d="M76.3603 5.26562L78.7344 11.9751L81.1085 5.26562H82.9665L79.7666 13.5234H77.7021L74.6055 5.26562H76.3603Z" fill="white"/>
<path d="M87.7129 13.7296C85.3388 13.7296 83.584 12.078 83.584 9.49746C83.584 6.81367 85.2355 5.16211 87.7129 5.16211C90.087 5.16211 91.7386 6.81367 91.7386 9.18779C91.7386 9.49746 91.7386 9.70391 91.6354 10.0136H85.3388C85.442 11.3555 86.4742 12.1813 87.7129 12.1813C88.7451 12.1813 89.3645 11.6651 89.6741 11.0458H91.5321C91.016 12.5941 89.7773 13.7296 87.7129 13.7296ZM85.3388 8.67168H89.8806C89.8806 7.43301 88.8483 6.60723 87.6097 6.60723C86.4742 6.60723 85.5452 7.43301 85.3388 8.67168Z" fill="white"/>
<path d="M95.1435 13.6267H93.3887V5.36885H95.1435V6.60752C95.6596 5.78174 96.4854 5.26562 97.6208 5.26562V7.02041H97.2079C95.9692 7.02041 95.1435 7.53652 95.1435 9.29131V13.6267Z" fill="white"/>
<path d="M102.164 13.7296C100.203 13.7296 98.7578 12.5941 98.7578 11.0458H100.513C100.616 11.7684 101.235 12.2845 102.164 12.2845C103.196 12.2845 103.713 11.8716 103.713 11.2522C103.713 9.60068 98.861 10.5297 98.861 7.53623C98.861 6.19434 100.1 5.16211 102.061 5.16211C103.919 5.16211 105.158 6.19434 105.261 7.8459H103.506C103.403 7.12334 102.887 6.60723 101.958 6.60723C101.029 6.60723 100.513 7.02012 100.513 7.53623C100.513 9.18779 105.158 8.25879 105.261 11.2522C105.364 12.6974 104.125 13.7296 102.164 13.7296Z" fill="white"/>
<path d="M49.4175 23.2256H47.5595V27.4577H45.8047V17.0322H49.4175C51.8948 17.0322 53.1335 18.4773 53.1335 20.1289C53.1335 21.574 52.1013 23.2256 49.4175 23.2256ZM49.4175 21.7805C50.7594 21.7805 51.3787 21.1611 51.3787 20.1289C51.3787 19.0967 50.7594 18.3741 49.4175 18.3741H47.5595V21.7805H49.4175Z" fill="white"/>
<path d="M56.4364 27.4577H54.6816V19.1999H56.4364V20.4386C56.9525 19.6128 57.7783 19.0967 58.9138 19.0967V20.8515H58.5009C57.2622 20.8515 56.4364 21.3676 56.4364 23.1224V27.4577Z" fill="white"/>
<path d="M64.0742 27.5609C61.7001 27.5609 59.9453 25.9094 59.9453 23.3288C59.9453 20.7482 61.8033 19.0967 64.1774 19.0967C66.5516 19.0967 68.4096 20.7482 68.4096 23.3288C68.4096 25.9094 66.4483 27.5609 64.0742 27.5609ZM64.0742 26.1158C65.3129 26.1158 66.6548 25.1868 66.6548 23.3288C66.6548 21.4708 65.4161 20.5418 64.1774 20.5418C62.8355 20.5418 61.7001 21.4708 61.7001 23.3288C61.7001 25.1868 62.8355 26.1158 64.0742 26.1158Z" fill="white"/>
<path d="M74.7078 18.9941C76.8755 18.9941 78.6303 20.6457 78.6303 23.2263C78.6303 25.8068 76.8755 27.5616 74.7078 27.5616C73.3659 27.5616 72.3337 26.8391 71.8176 26.2197V31.3809H70.166V19.2006H71.9208V20.4393C72.3337 19.7167 73.3659 18.9941 74.7078 18.9941ZM74.2949 20.5425C73.0563 20.5425 71.8176 21.5747 71.8176 23.3295C71.8176 25.0843 73.0563 26.1165 74.2949 26.1165C75.6368 26.1165 76.7723 25.0843 76.7723 23.3295C76.7723 21.5747 75.6368 20.5425 74.2949 20.5425Z" fill="white"/>
<path d="M83.8945 27.5609C81.5204 27.5609 79.7656 25.9094 79.7656 23.3288C79.7656 20.7482 81.4172 19.0967 83.8945 19.0967C86.2687 19.0967 87.9202 20.7482 87.9202 23.1224C87.9202 23.432 87.9202 23.6385 87.817 23.9481H81.5204C81.6236 25.29 82.6559 26.1158 83.8945 26.1158C84.9268 26.1158 85.5461 25.5997 85.8558 24.9804H87.7138C87.1977 26.4255 85.8558 27.5609 83.8945 27.5609ZM81.5204 22.6063H86.0622C86.0622 21.3676 85.03 20.5418 83.7913 20.5418C82.6559 20.4386 81.7269 21.2644 81.5204 22.6063Z" fill="white"/>
<path d="M91.3251 27.4577H89.5703V19.1999H91.3251V20.4386C91.8412 19.6128 92.667 19.0967 93.8024 19.0967V20.8515H93.3895C92.1509 20.8515 91.3251 21.3676 91.3251 23.1224V27.4577Z" fill="white"/>
<path d="M95.6614 20.5418H94.7324V19.0967H95.6614V17.0322H97.4162V19.0967H99.4807V20.5418H97.4162V25.0836C97.4162 25.7029 97.6227 25.9094 98.3452 25.9094H99.3774V27.3545H98.0355C96.5904 27.3545 95.6614 26.7352 95.6614 25.0836V20.5418Z" fill="white"/>
<path d="M100.721 16.9294C100.721 16.3101 101.237 15.7939 101.856 15.7939C102.475 15.7939 102.888 16.3101 102.888 16.9294C102.888 17.5487 102.372 18.0648 101.856 18.0648C101.237 18.0648 100.721 17.5487 100.721 16.9294ZM100.927 19.2003H102.682V27.4581H100.927V19.2003Z" fill="white"/>
<path d="M108.461 27.5609C106.087 27.5609 104.332 25.9094 104.332 23.3288C104.332 20.7482 105.984 19.0967 108.461 19.0967C110.835 19.0967 112.487 20.7482 112.487 23.1224C112.487 23.432 112.487 23.6385 112.383 23.9481H106.087C106.19 25.29 107.222 26.1158 108.461 26.1158C109.493 26.1158 110.113 25.5997 110.422 24.9804H112.28C111.764 26.4255 110.525 27.5609 108.461 27.5609ZM106.087 22.6063H110.629C110.629 21.3676 109.596 20.5418 108.358 20.5418C107.222 20.4386 106.293 21.2644 106.087 22.6063Z" fill="white"/>
<path d="M117.234 27.5616C115.273 27.5616 113.828 26.4262 113.828 24.8778H115.583C115.686 25.6004 116.305 26.1165 117.234 26.1165C118.267 26.1165 118.783 25.7036 118.783 25.0843C118.783 23.4327 113.931 24.3617 113.931 21.3683C113.931 20.0264 115.17 18.9941 117.131 18.9941C118.989 18.9941 120.228 20.0264 120.331 21.6779H118.576C118.473 20.9554 117.957 20.4393 117.028 20.4393C116.099 20.4393 115.583 20.8522 115.583 21.3683C115.583 23.0198 120.228 22.0908 120.331 25.0843C120.331 26.5294 119.196 27.5616 117.234 27.5616Z" fill="white"/>
</svg>
