<svg width="130" height="16" viewBox="0 0 130 16" fill="none" xmlns="http://www.w3.org/2000/svg">
<path d="M47.3 11.2513H38.8358L36.9778 15.277H35.3262L42.2421 0H43.7904L50.7064 15.277H49.158L47.3 11.2513ZM46.6807 9.90937L43.0679 1.75478L39.4551 9.90937H46.6807Z" fill="white"/>
<path d="M57.7246 0H59.3762V13.8318H67.9437V15.1737H57.8279V0H57.7246Z" fill="white"/>
<path d="M86.8351 5.26435C86.8351 8.46425 84.461 10.4255 80.6418 10.4255H76.5129V15.277H74.8613V0H80.5386C84.461 0 86.8351 1.96122 86.8351 5.26435ZM85.1836 5.26435C85.1836 2.787 83.532 1.44511 80.5386 1.44511H76.5129V9.0836H80.5386C83.6353 9.0836 85.1836 7.63847 85.1836 5.26435Z" fill="white"/>
<path d="M107.376 0V15.277H105.828V8.25781H96.3313V15.277H94.6797V0H96.3313V6.81269H105.828V0H107.376Z" fill="white"/>
<path d="M126.265 11.2513H117.801L115.943 15.277H114.291L121.207 0H122.755L129.671 15.277H128.02L126.265 11.2513ZM125.646 9.90937L122.033 1.75478L118.42 9.90937H125.646Z" fill="white"/>
<path d="M22.8366 11.1481L27.5848 0H9.31445C11.7918 2.06445 17.3658 6.70948 22.8366 11.1481Z" fill="white"/>
<path d="M8.58985 0H6.93825L0.332031 15.277H16.538L8.58985 0Z" fill="white"/>
</svg>
