<svg width="128" height="33" viewBox="0 0 128 33" fill="none" xmlns="http://www.w3.org/2000/svg">
<path d="M11.4004 21.555L11.4004 32.3691L22.2145 32.3691L22.2145 21.555L11.4004 21.555Z" fill="white"/>
<path d="M11.4121 0.000349998L11.4121 10.8145L22.2262 10.8145L22.2262 0.000349999L11.4121 0.000349998Z" fill="white"/>
<path d="M0.671875 10.8148L0.671875 21.6289L11.486 21.6289L11.486 10.8148L0.671875 10.8148Z" fill="white"/>
<path d="M47.5812 18.6154C47.0663 22.4776 45.0923 24.1083 40.801 24.1083C35.5656 24.1083 33.4199 21.8769 33.4199 16.5556C33.4199 11.2344 35.6514 9.00293 40.801 9.00293C45.0923 9.00293 47.1521 10.6336 47.5812 14.4958H44.234C43.8907 12.436 42.775 11.5777 40.7151 11.5777C37.8829 11.5777 36.5955 13.1226 36.5955 16.5556C36.5955 20.0745 37.8829 21.5335 40.7151 21.5335C42.775 21.5335 43.8049 20.6753 44.234 18.6154H47.5812Z" fill="white"/>
<path d="M64.7465 16.5556C64.7465 21.8769 62.515 24.1083 57.3654 24.1083C52.13 24.1083 49.9844 21.8769 49.9844 16.5556C49.9844 11.2344 52.2159 9.00293 57.3654 9.00293C62.515 9.00293 64.7465 11.3202 64.7465 16.5556ZM57.3654 21.5335C60.2835 21.5335 61.4851 20.0745 61.4851 16.5556C61.4851 13.0368 60.2835 11.5777 57.3654 11.5777C54.4473 11.5777 53.2458 13.0368 53.2458 16.5556C53.2458 20.0745 54.4473 21.5335 57.3654 21.5335Z" fill="white"/>
<path d="M76.247 9.00293C80.3667 9.00293 82.169 11.2344 82.169 16.5556C82.169 21.8769 80.3667 24.1083 76.247 24.1083C73.5864 24.1083 71.9557 22.9068 71.2691 20.332V29.6012H67.9219V9.2604H70.4967L71.0974 12.9509C71.8699 10.2045 73.5006 9.00293 76.247 9.00293ZM71.2691 16.5556C71.2691 20.1603 72.3848 21.7052 75.0454 21.7052C77.7061 21.7052 78.8218 20.1603 78.8218 16.5556C78.8218 12.9509 77.7061 11.4061 75.0454 11.4061C72.3848 11.4061 71.2691 12.9509 71.2691 16.5556Z" fill="white"/>
<path d="M89.4654 5.05507C89.4654 6.42829 88.8646 7.02907 87.4055 7.02907C85.9465 7.02907 85.3457 6.42829 85.3457 5.05507C85.3457 3.68185 85.9465 3.08105 87.4055 3.08105C88.8646 3.08105 89.4654 3.68185 89.4654 5.05507ZM85.7748 23.851V9.34638H89.1221V23.851H85.7748Z" fill="white"/>
<path d="M95.9872 9.3457L99.2486 15.9543L102.338 9.3457H105.857L102.252 16.2976L106.115 23.8503H102.596L99.1628 16.6409L95.6439 23.8503H92.125L96.1588 16.2976L92.3825 9.3457H95.9872Z" fill="white"/>
<path d="M110.49 17.929C110.747 20.6754 111.949 21.9628 114.352 21.9628C116.326 21.9628 117.27 21.2762 117.785 19.4738H120.961C120.274 22.7352 118.3 24.1943 114.438 24.1943C109.46 24.1943 107.314 21.9628 107.314 16.6416C107.314 11.3204 109.46 9.08887 114.438 9.08887C119.416 9.08887 121.562 11.4062 121.562 16.8132V17.929H110.49ZM110.49 15.8692H118.214C118.214 12.5219 117.099 11.2345 114.438 11.2345C111.777 11.2345 110.576 12.6078 110.49 15.8692Z" fill="white"/>
<path d="M124.652 3.50977H127.914V23.8506H124.652V3.50977Z" fill="white"/>
</svg>
