<svg width="100" height="33" viewBox="0 0 100 33" fill="none" xmlns="http://www.w3.org/2000/svg">
<path d="M41.9473 3.63261V6.27493H45.3824V6.86945H41.9473V9.70995H41.2207V3.03809H45.7787V3.63261H41.9473Z" fill="white"/>
<path d="M49.5434 4.62305V5.28363C49.4773 5.28363 49.4113 5.28363 49.4113 5.28363C48.3544 5.28363 47.6938 5.94421 47.6938 7.13325V9.70951H47.0332V4.6891H47.6938V5.67997C48.0241 5.01939 48.6186 4.62305 49.5434 4.62305Z" fill="white"/>
<path d="M54.5636 6.60479V9.70951H53.9031V8.91682C53.5728 9.44528 52.9782 9.77557 52.1856 9.77557C51.0626 9.77557 50.3359 9.18104 50.3359 8.32229C50.3359 7.52959 50.8644 6.86901 52.2516 6.86901H53.837V6.53872C53.837 5.67997 53.3746 5.21756 52.3837 5.21756C51.7232 5.21756 51.1286 5.41574 50.7323 5.81209L50.402 5.28363C50.9305 4.82122 51.6571 4.62305 52.4498 4.62305C53.837 4.62305 54.5636 5.28363 54.5636 6.60479ZM53.9031 8.19018V7.39748H52.3177C51.3268 7.39748 50.9965 7.79382 50.9965 8.32229C50.9965 8.91681 51.4589 9.24711 52.2516 9.24711C53.0443 9.24711 53.6388 8.85076 53.9031 8.19018Z" fill="white"/>
<path d="M64.7381 6.80354V9.71009H64.0775V6.8696C64.0775 5.81267 63.549 5.28421 62.6242 5.28421C61.5673 5.28421 60.9728 5.94479 60.9728 7.06777V9.71009H60.3122V6.8696C60.3122 5.81267 59.7837 5.28421 58.8589 5.28421C57.868 5.28421 57.2075 5.94479 57.2075 7.06777V9.71009H56.5469V4.68968H57.2075V5.6145C57.5377 5.01998 58.1983 4.68968 59.0571 4.68968C59.9158 4.68968 60.5104 5.01997 60.8406 5.74661C61.1709 5.08603 61.8976 4.68968 62.8224 4.68968C63.8793 4.62362 64.7381 5.35027 64.7381 6.80354Z" fill="white"/>
<path d="M70.9469 7.39811H66.7192C66.7852 8.45504 67.5779 9.11563 68.7009 9.11563C69.2954 9.11563 69.89 8.91745 70.2203 8.45505L70.6166 8.91745C70.1542 9.44591 69.4936 9.71014 68.7009 9.71014C67.1155 9.71014 66.0586 8.65322 66.0586 7.13389C66.0586 5.61455 67.1155 4.55762 68.5027 4.55762C69.89 4.55762 70.9469 5.61455 70.9469 7.13389C70.9469 7.266 70.9469 7.33206 70.9469 7.39811ZM66.7192 6.93571H70.2863C70.2202 5.94484 69.4936 5.28426 68.5027 5.28426C67.5119 5.2182 66.8513 5.94484 66.7192 6.93571Z" fill="white"/>
<path d="M71.8066 7.19931C71.8066 5.67997 72.8636 4.62305 74.3829 4.62305C75.9022 4.62305 76.9592 5.67997 76.9592 7.19931C76.9592 8.71864 75.9022 9.77557 74.3829 9.77557C72.8636 9.77557 71.8066 8.71864 71.8066 7.19931ZM76.2325 7.19931C76.2325 6.01026 75.4398 5.21756 74.3829 5.21756C73.326 5.21756 72.5333 6.01026 72.5333 7.19931C72.5333 8.38835 73.326 9.18105 74.3829 9.18105C75.4398 9.18105 76.2325 8.38835 76.2325 7.19931Z" fill="white"/>
<path d="M45.4487 17.8346H41.6834L40.8907 19.6182H40.1641L43.2027 12.9463H43.9294L46.968 19.6182H46.2414L45.4487 17.8346ZM45.1845 17.2401L43.5991 13.6729L42.0137 17.2401H45.1845Z" fill="white"/>
<path d="M50.4692 14.5322V15.1928C50.4031 15.1928 50.3371 15.1928 50.3371 15.1928C49.2801 15.1928 48.6196 15.8534 48.6196 17.0424V19.6187H47.959V14.5983H48.6196V15.5891C48.8838 14.8625 49.5444 14.5322 50.4692 14.5322Z" fill="white"/>
<path d="M51.1289 17.1085C51.1289 15.5892 52.1859 14.5322 53.7052 14.5322C54.5639 14.5322 55.2906 14.8625 55.6869 15.5231L55.1584 15.8534C54.8282 15.3249 54.2997 15.1267 53.7052 15.1267C52.5822 15.1267 51.7895 15.9194 51.7895 17.1085C51.7895 18.2975 52.5822 19.0902 53.7052 19.0902C54.2997 19.0902 54.8282 18.8921 55.1584 18.3636L55.6869 18.6939C55.2906 19.3545 54.5639 19.6848 53.7052 19.6848C52.2519 19.6187 51.1289 18.5618 51.1289 17.1085Z" fill="white"/>
<path d="M61.5674 16.7124V19.619H60.9068V16.7785C60.9068 15.7216 60.3784 15.1931 59.3875 15.1931C58.3306 15.1931 57.6039 15.8537 57.6039 16.9767V19.619H56.9434V12.5508H57.6039V15.5234C58.0003 14.9289 58.6609 14.5986 59.4536 14.5986C60.7087 14.5325 61.5674 15.2592 61.5674 16.7124Z" fill="white"/>
<path d="M63.2832 13.0132C63.2832 12.749 63.4814 12.5508 63.8117 12.5508C64.0759 12.5508 64.3401 12.749 64.3401 13.0132C64.3401 13.2774 64.1419 13.5417 63.8117 13.5417C63.4814 13.4756 63.2832 13.2774 63.2832 13.0132ZM63.4153 14.5986H64.0759V19.619H63.4153V14.5986Z" fill="white"/>
<path d="M68.6362 19.2883C68.3719 19.5526 67.9756 19.6186 67.5793 19.6186C66.6545 19.6186 66.126 19.0902 66.126 18.1654V15.1267H65.2012V14.5322H66.126V13.4092H66.7866V14.5322H68.3059V15.1267H66.7866V18.0993C66.7866 18.6938 67.1168 19.0241 67.6453 19.0241C67.9095 19.0241 68.1738 18.958 68.3719 18.7599L68.6362 19.2883Z" fill="white"/>
<path d="M74.0524 17.3063H69.8246C69.8907 18.3632 70.6834 19.0238 71.8064 19.0238C72.4009 19.0238 72.9954 18.8257 73.3257 18.3632L73.7221 18.8257C73.2597 19.3541 72.5991 19.6183 71.8064 19.6183C70.221 19.6183 69.1641 18.5614 69.1641 17.0421C69.1641 15.5228 70.221 14.4658 71.6082 14.4658C72.9954 14.4658 74.0524 15.5228 74.0524 17.0421C74.0524 17.1742 74.0524 17.2403 74.0524 17.3063ZM69.8246 16.7779H73.3918C73.3257 15.787 72.5991 15.1264 71.6082 15.1264C70.6173 15.1264 69.9568 15.787 69.8246 16.7779Z" fill="white"/>
<path d="M74.9102 17.1085C74.9102 15.5892 75.9671 14.5322 77.4864 14.5322C78.3452 14.5322 79.0718 14.8625 79.4682 15.5231L78.9397 15.8534C78.6094 15.3249 78.081 15.1267 77.4864 15.1267C76.3634 15.1267 75.5707 15.9194 75.5707 17.1085C75.5707 18.2975 76.3634 19.0902 77.4864 19.0902C78.081 19.0902 78.6094 18.8921 78.9397 18.3636L79.4682 18.6939C79.0718 19.3545 78.3452 19.6848 77.4864 19.6848C76.0332 19.6187 74.9102 18.5618 74.9102 17.1085Z" fill="white"/>
<path d="M83.4995 19.2883C83.2352 19.5526 82.8389 19.6186 82.4425 19.6186C81.5177 19.6186 80.9893 19.0902 80.9893 18.1654V15.1267H80.0645V14.5322H80.9893V13.4092H81.6498V14.5322H83.1692V15.1267H81.6498V18.0993C81.6498 18.6938 81.9801 19.0241 82.5086 19.0241C82.7728 19.0241 83.0371 18.958 83.2352 18.7599L83.4995 19.2883Z" fill="white"/>
<path d="M89.3119 14.5983V19.6187H88.6513V18.6939C88.321 19.2884 87.6604 19.6848 86.8678 19.6848C85.6126 19.6848 84.7539 18.9581 84.7539 17.5048V14.5983H85.4145V17.4388C85.4145 18.4957 85.9429 19.0242 86.9338 19.0242C87.9907 19.0242 88.6513 18.3636 88.6513 17.1745V14.5322H89.3119V14.5983Z" fill="white"/>
<path d="M93.7368 14.5322V15.1928C93.6707 15.1928 93.6047 15.1928 93.6047 15.1928C92.5477 15.1928 91.8871 15.8534 91.8871 17.0424V19.6187H91.2266V14.5983H91.8871V15.5891C92.1514 14.8625 92.8119 14.5322 93.7368 14.5322Z" fill="white"/>
<path d="M99.2848 17.3063H95.0571C95.1231 18.3632 95.9158 19.0238 97.0388 19.0238C97.6333 19.0238 98.2279 18.8257 98.5582 18.3632L98.9545 18.8257C98.4921 19.3541 97.8315 19.6183 97.0388 19.6183C95.4534 19.6183 94.3965 18.5614 94.3965 17.0421C94.3965 15.5228 95.4534 14.4658 96.8406 14.4658C98.2279 14.4658 99.2848 15.5228 99.2848 17.0421C99.2848 17.1742 99.2848 17.2403 99.2848 17.3063ZM95.0571 16.7779H98.6242C98.5582 15.787 97.8315 15.1264 96.8406 15.1264C95.8498 15.1264 95.1231 15.787 95.0571 16.7779Z" fill="white"/>
<path d="M41.2207 22.7891H43.9291C46.0429 22.7891 47.4962 24.1763 47.4962 26.158C47.4962 28.1398 46.0429 29.527 43.9291 29.527H41.2207V22.7891ZM43.9291 28.8664C45.7127 28.8664 46.8356 27.7434 46.8356 26.158C46.8356 24.5726 45.7127 23.4496 43.9291 23.4496H41.9473V28.9325H43.9291V28.8664Z" fill="white"/>
<path d="M49.4108 22.8556C49.4108 22.9877 49.3447 23.1198 49.2787 23.3841L48.8823 24.7052H48.4199L48.7502 23.318C48.552 23.252 48.4199 23.0538 48.4199 22.8556C48.4199 22.5253 48.6181 22.3271 48.9484 22.3271C49.2126 22.3271 49.4108 22.5914 49.4108 22.8556Z" fill="white"/>
<path d="M50.7344 22.856C50.7344 22.5917 50.9325 22.3936 51.2628 22.3936C51.5271 22.3936 51.7913 22.5917 51.7913 22.856C51.7913 23.1202 51.5931 23.3844 51.2628 23.3844C50.9325 23.3844 50.7344 23.1202 50.7344 22.856ZM50.8665 24.4414H51.5271V29.4618H50.8665V24.4414Z" fill="white"/>
<path d="M58.0655 26.5549V29.4615H57.4049V26.621C57.4049 25.5641 56.8764 25.0356 55.8856 25.0356C54.8286 25.0356 54.102 25.6962 54.102 26.8191V29.4615H53.4414V24.4411H54.102V25.3659C54.4323 24.7713 55.1589 24.375 56.0177 24.375C57.2067 24.4411 58.0655 25.1016 58.0655 26.5549Z" fill="white"/>
<path d="M62.5581 29.1975C62.2938 29.4617 61.8975 29.5278 61.5011 29.5278C60.5763 29.5278 60.0479 28.9993 60.0479 28.0745V25.0359H59.123V24.4413H60.0479V23.3184H60.7084V24.4413H62.2278V25.0359H60.7084V28.0085C60.7084 28.603 61.0387 28.9333 61.5672 28.9333C61.8314 28.9333 62.0957 28.8672 62.2938 28.6691L62.5581 29.1975Z" fill="white"/>
<path d="M67.9762 27.1491H63.7485C63.8145 28.206 64.6072 28.8666 65.7302 28.8666C66.3247 28.8666 66.9193 28.6684 67.2496 28.206L67.6459 28.6684C67.1835 29.1969 66.5229 29.4611 65.7302 29.4611C64.1448 29.4611 63.0879 28.4042 63.0879 26.8849C63.0879 25.3655 64.1448 24.3086 65.532 24.3086C66.9193 24.3086 67.9762 25.3655 67.9762 26.8849C67.9762 27.017 67.9762 27.083 67.9762 27.1491ZM63.7485 26.6867H67.3156C67.2495 25.6958 66.5229 25.0352 65.532 25.0352C64.5412 24.9692 63.8145 25.6958 63.7485 26.6867Z" fill="white"/>
<path d="M71.8715 24.4404V25.101C71.8055 25.101 71.7394 25.101 71.7394 25.101C70.6825 25.101 70.0219 25.7616 70.0219 26.9506V29.5269H69.3613V24.5065H70.0219V25.4974C70.3522 24.7707 70.9467 24.4404 71.8715 24.4404Z" fill="white"/>
<path d="M72.9277 22.856C72.9277 22.5917 73.1259 22.3936 73.4562 22.3936C73.7204 22.3936 73.9847 22.5917 73.9847 22.856C73.9847 23.1202 73.7865 23.3844 73.4562 23.3844C73.192 23.3844 72.9277 23.1202 72.9277 22.856ZM73.1259 24.4414H73.7865V29.4618H73.1259V24.4414Z" fill="white"/>
<path d="M80.0621 27.1491H75.8344C75.9005 28.206 76.6932 28.8666 77.8161 28.8666C78.4107 28.8666 79.0052 28.6684 79.3355 28.206L79.7318 28.6684C79.2694 29.1969 78.6088 29.4611 77.8161 29.4611C76.2308 29.4611 75.1738 28.4042 75.1738 26.8849C75.1738 25.3655 76.2307 24.3086 77.618 24.3086C79.0052 24.3086 80.0621 25.3655 80.0621 26.8849C80.0621 27.017 80.0621 27.083 80.0621 27.1491ZM75.8344 26.6867H79.4015C79.3355 25.6958 78.6088 25.0352 77.618 25.0352C76.6271 24.9692 75.9665 25.6958 75.8344 26.6867Z" fill="white"/>
<path d="M86.0072 24.4411V29.4615H85.3466V28.5367C85.0163 29.1312 84.3558 29.5275 83.5631 29.5275C82.308 29.5275 81.4492 28.8009 81.4492 27.3476V24.4411H82.1098V27.2816C82.1098 28.3385 82.6383 28.8669 83.6291 28.8669C84.6861 28.8669 85.3466 28.2064 85.3466 27.0173V24.375H86.0072V24.4411Z" fill="white"/>
<path d="M90.434 24.4404V25.101C90.368 25.101 90.3019 25.101 90.3019 25.101C89.245 25.101 88.5844 25.7616 88.5844 26.9506V29.5269H87.9238V24.5065H88.5844V25.4974C88.8486 24.7707 89.5092 24.4404 90.434 24.4404Z" fill="white"/>
<path d="M21.5349 0H10.7675H0V10.7675V21.601L10.7675 32.3684H21.5349H32.3024V21.601V10.8335L21.5349 0ZM21.5349 21.601H10.7675V10.8335H21.5349V21.601Z" fill="white"/>
</svg>
